# xmcd
# 
# Track frame offsets:
#     150
#     16305
#     38777
#     41527
#     58510
#     73787
#     83375
#     94420
#     126862
#     129820
#     142510
#     157420
#     165807
#     169295
#     185867
#     201827
# 
# Disc length: 2850
# 
# Revision: 2
# Processed by: cddbd v1.5.2PL0 Copyright (c) Steve Scherf et al.
# Submitted via: fre:ac v1.0.31
# 
DISCID=d20b2010
DTITLE=Sparklehorse - Vivadixiesubmarinetransmissionplot
DYEAR=1995
DGENRE=Alternative
TTITLE0=Homecoming Queen
TTITLE1=Weird Sisters
TTITLE2=850 Double Pumper Holley
TTITLE3=Rainmaker
TTITLE4=Spirit Ditch
TTITLE5=Tears On Fresh Fruit
TTITLE6=Saturday
TTITLE7=Cow
TTITLE8=Little Bastard Choo Choo
TTITLE9=Hammering The Cramps
TTITLE10=Most Beautiful Widow In Town
TTITLE11=Heart Of Darkness
TTITLE12=Ballad Of A Cold Lost Marble
TTITLE13=Someday I Will Treat You Good
TTITLE14=Sad And Beautiful World
TTITLE15=Gasoline Horseys
EXTD=
EXTT0=
EXTT1=
EXTT2=
EXTT3=
EXTT4=
EXTT5=
EXTT6=
EXTT7=
EXTT8=
EXTT9=
EXTT10=
EXTT11=
EXTT12=
EXTT13=
EXTT14=
EXTT15=
PLAYORDER=
